<?xml version="1.0" encoding="UTF-8"?><svg id="Layer_1" xmlns="http://www.w3.org/2000/svg" xmlns:xlink="http://www.w3.org/1999/xlink" viewBox="0 0 384 384"><defs><style>.cls-1{fill:#89c8fd;}.cls-2{fill:url(#linear-gradient-2);}.cls-3{fill:#727272;}.cls-4{fill:#fee077;}.cls-5{fill:#60b6fe;}.cls-6{fill:#fb616c;}.cls-7{fill:#fa4654;}.cls-8{fill:#b2e49e;}.cls-9{fill:#fc4755;}.cls-10{fill:#616161;}.cls-11{fill:#f44552;}.cls-12{fill:#cbf39e;}.cls-13{fill:#f75f6a;}.cls-14{fill:#fd646f;}.cls-15{fill:#fecf64;}.cls-16{fill:url(#linear-gradient);}</style><linearGradient id="linear-gradient" x1="-487.7" y1="980.89" x2="-537.61" y2="995.51" gradientTransform="translate(576 -549) scale(.75)" gradientUnits="userSpaceOnUse"><stop offset="0" stop-color="#685e68"/><stop offset=".42" stop-color="#574b57"/><stop offset="1" stop-color="#685e68"/></linearGradient><linearGradient id="linear-gradient-2" x1="-520.62" y1="1122.36" x2="-294.62" y2="1124.46" gradientTransform="translate(576 -549) scale(.75)" gradientUnits="userSpaceOnUse"><stop offset="0" stop-color="#fee077"/><stop offset="1" stop-color="#fecf64"/></linearGradient></defs><path d="M179.29,223.13c-8.58-3.49-14.63-9.44-18.06-17.63-4.63-9.93-3.79-21.02,1.77-30.53,5.59-10.2,16.27-15.94,27.23-16.77,11.72-.51,22.56,4.75,29.6,14.67l67.66-30c3.53-2.28,7.72-.38,9.2,2.58,1.25,4.17-.16,7.55-4.45,8.89l-67.4,29.86c3.16,12.91-1.51,25.29-10.78,33.36-9.56,8.15-22.74,10.84-34.78,5.58Z"/><circle class="cls-16" cx="192.03" cy="191.99" r="21.53"/><path d="M340.5,384h-140.25c-.49-.78-1.53-.91-2.72-1-14.56-3.74-24.45-15.91-26.26-30.85-.96-7.4,1.14-14.26,4.74-21.03l63.29-109.66c5.92-10.79,16.04-17.64,28.29-18.34,2.05-1.04,4.08-.35,6.21-.03,11.52.92,21.16,7.4,27.2,17.32l62.23,107.78c8.93,13.04,8.83,29.33-.72,41.89-5.27,7.66-13.42,11.61-22.01,13.93Z"/><path class="cls-2" d="M338.25,371.42c-22.6.27-45.1.21-67.5-.17,0-.55-.26-.43-.81.36l-67.44-.2c-7.83-1.18-13.76-6.52-16.57-12.15-3.69-7.68-3.18-15.1.66-22.1l63.58-110.09c4.37-7.71,11.89-11.91,20.21-11.98,8.13.02,15.5,3.97,20.02,11.33l63.66,110.24c4.23,7.32,4.65,15.16.83,22.88-3.14,5.86-9.28,11.25-16.63,11.9Z"/><path class="cls-4" d="M270.75,371.25c.65.21.65.46,0,.75l-68.25-.59,67.42-.19c.48-2.61-.5-4.89.45-7.54.87,2.53.14,5.06.37,7.57Z"/><polygon class="cls-15" points="338.25 371.42 270.75 372 270.75 371.25 338.25 371.42"/><path d="M284.12,312.35c-.34,8.06-6.51,13.46-13.73,13.43-7.21-.02-13.21-5.55-13.56-13.2l-1.93-53.83c.12-8.61,7.4-14.55,15.87-13.57,8.56-.82,15.59,5.69,15.23,14.36l-1.88,52.82Z"/><path class="cls-6" d="M270.56,257.19l1.5.69-.56,53.56-.74,2.11c-1.2.08-1.77-.56-1.96-1.67l-1.89-53.68c1.15-1.29,2.49-1.11,3.65-1.01Z"/><path class="cls-7" d="M270.75,313.55l-.32-15.82.13-40.54c1.56-.1,2.54,0,3.04.61.33.7.4,1.43.36,2.45l-1.82,49.48c.41,1.72.08,3.49-1.39,3.81Z"/><circle cx="270.46" cy="347.07" r="15.76"/><path class="cls-13" d="M270.56,343.36c2.38,1.48,2.27,7.77-1.52,7.12-1.65-.68-2.58-2.44-2.21-4.19s1.94-2.98,3.72-2.93Z"/><path class="cls-11" d="M269.05,350.48c.41-.13.78-.2,1.13-.29.23-.29.29-.73.31-1.37,0-2.03-.11-3.72.08-5.46,1.48.04,2.8.96,3.34,2.35s.21,2.95-.85,3.99-2.64,1.35-4.01.78Z"/><path d="M206.25,0c31.82.44,63.03,11.44,89.99,28.73,28.43,18.24,51.61,43.33,67.42,73.42,12.26,23.32,19.91,48.74,20.34,74.85v11.25c-2.24,4.43-5.3,8.4-10.64,9.72l-43.23.02c-6.24-1.59-10.45-6.71-11.19-13.05-.43-15.69-4.55-30.27-10.56-44.85-5.53-12.16-12.63-23.23-21.67-33.06-2.91-3.85-5.93-6.76-9.77-9.83-20.89-18.87-47.65-30.27-75.91-32.05-6.35-.78-11.79-.88-18.01.05-15.31.8-29.95,4.7-43.77,11-14.03,6.37-26.04,14.53-36.84,25.56-21.93,21.23-34.82,49.94-37.32,80.39.4,7.46-3.55,13.53-10.51,15.84l-43.93-.02c-5.72-1.35-8.65-5.6-10.67-10.47v-6.75l.75-.75-.75-.75v-1.5c.97-46.05,23.2-90.98,55.32-123.18C87,22.82,132.81.83,177.75,0h28.5Z"/><path class="cls-3" d="M.75,180c-.22.47-.47.46-.75,0v-.75c.49-.1.85.26.75.75Z"/><path class="cls-10" d="M0,180.75v-.75h.75c.1.49-.26.85-.75.75Z"/><path class="cls-1" d="M74.89,83.88l-1.56,3.86c-23.5,25.79-36.94,59.63-39.21,94.33l-1.7,3.8-20.21-.16c1.44-43.58,18.31-84.63,48.17-116.69,5.05,4.9,10.33,9.5,14.52,14.87Z"/><path class="cls-14" d="M351.61,185.88l-1.68-3.94c-1.97-34.94-16.27-67.94-38.83-94.53l-1.48-4.01,14.03-14.42c29.73,31.77,47.01,73.43,48.15,116.87l-20.19.02Z"/><path class="cls-9" d="M351.61,185.88l-20.07.1c-1.8-32.9-14.13-63.76-36.66-88.27l14.74-14.31c25.3,28.63,40.79,64.1,41.99,102.47Z"/><path class="cls-5" d="M32.42,185.87c1.53-37.7,16.25-74.83,42.47-101.98l14.32,13.72c-22.11,24.34-35.02,54.94-36.57,88.26h-20.23Z"/><path class="cls-12" d="M185.81,32.33l-4.01,1.71c-34.85,2.2-67.77,16.35-94.32,38.86l-4.06,1.53-14.38-14.04c31.87-29.8,73.53-46.93,116.94-48.2l-.17,20.14Z"/><path class="cls-4" d="M300.61,74.42l-4.06-1.54c-26.51-22.58-59.48-36.69-94.33-38.84l-4.01-1.7-.08-20.18c43.77,1.4,85.09,18.45,116.95,48.26-5.13,4.96-9.33,10.08-14.46,14Z"/><path class="cls-15" d="M300.61,74.42c-4.19,5.31-9.39,9.89-14.37,14.68-24.73-22.63-55.58-34.91-88.26-36.55l.23-20.21c38.41,1.44,73.76,16.66,102.41,42.08Z"/><path class="cls-8" d="M185.81,32.33l.14,20.31c-33.15,1.52-63.83,14.34-88.2,36.5l-14.33-14.71c28.67-25.32,63.97-40.6,102.39-42.1Z"/></svg>